<!DOCTYPE svg PUBLIC "-//W3C//DTD SVG 1.1//EN" "http://www.w3.org/Graphics/SVG/1.1/DTD/svg11.dtd">
<svg width="20cm" height="16cm" viewBox="0 0 512 256"  xmlns="http://www.w3.org/2000/svg" version="1.1">
 <path stroke="#000000" fill="#008020" stroke-width="0.00" d=" M0.00,144.00  C66.00,117.00 88.00,119.00 100.92,126.08  C110.00,132.00 114.00,141.00 126.07,144.66  C154.00,150.00 173.00,137.00 195.75,127.39  C205.00,124.00 215.00,121.00 227.02,120.56  C251.00,122.00 276.00,131.00 298.66,135.62  C307.00,138.00 316.00,139.00 325.01,138.60  C348.00,140.00 373.00,124.00 398.93,115.41  C407.00,113.00 416.00,111.00 426.00,110.77  C463.00,111.00 463.00,118.00 496.00,139.00  C462.00,119.00 462.00,112.00 426.00,111.23  C416.00,112.00 407.00,114.00 399.10,115.95  C373.00,125.00 349.00,141.00 324.99,139.40  C316.00,140.00 307.00,139.00 298.48,136.45  C276.00,132.00 251.00,123.00 226.98,121.44  C215.00,122.00 205.00,125.00 196.07,128.18  C174.00,137.00 154.00,151.00 125.93,145.34  C113.00,142.00 109.00,133.00 100.61,126.57  C88.00,119.00 66.00,117.00 0.00,144.00  " /> 
 <path stroke="#000000" fill="#008020" stroke-width="0.00" d=" M31.91,131.91  C31.00,131.00 31.00,130.00 31.65,128.91  C27.00,126.00 29.00,122.00 30.35,116.81  C31.00,122.00 34.00,125.00 31.48,128.93  C31.00,130.00 31.00,131.00 31.91,131.91  " /> 
 <path stroke="#000000" fill="#008020" stroke-width="0.00" d=" M65.02,122.86  C66.00,125.00 66.00,128.00 69.39,129.27  C77.00,131.00 78.00,137.00 81.13,143.04  C82.00,147.00 83.00,150.00 84.73,154.22  C81.00,152.00 78.00,150.00 75.59,146.68  C70.00,142.00 65.00,138.00 68.38,129.86  C68.00,127.00 66.00,126.00 65.02,122.86  " /> 
 <path stroke="#000000" fill="#008020" stroke-width="0.00" d=" M98.75,125.15  C101.00,124.00 105.00,122.00 108.15,118.65  C106.00,109.00 111.00,108.00 116.02,104.20  C122.00,101.00 130.00,98.00 141.81,96.44  C143.00,97.00 145.00,96.00 146.82,95.65  C145.00,98.00 144.00,99.00 143.38,99.37  C136.00,108.00 129.00,114.00 124.20,117.42  C119.00,120.00 116.00,124.00 108.08,118.55  C104.00,121.00 101.00,123.00 98.75,125.15  " /> 
 <path stroke="#000000" fill="#008020" stroke-width="0.00" d=" M126.61,145.10  C128.00,150.00 130.00,154.00 132.14,157.95  C141.00,158.00 143.00,161.00 146.48,163.68  C150.00,170.00 153.00,178.00 155.95,187.56  C157.00,194.00 158.00,199.00 160.15,205.92  C154.00,202.00 149.00,198.00 145.35,194.02  C137.00,187.00 131.00,180.00 129.09,172.88  C128.00,169.00 126.00,165.00 132.82,157.62  C130.00,154.00 128.00,150.00 126.61,145.10  " /> 
 <path stroke="#000000" fill="#008020" stroke-width="0.00" d=" M160.63,142.38  C162.00,139.00 164.00,134.00 167.13,128.56  C160.00,123.00 161.00,119.00 161.77,114.23  C163.00,107.00 168.00,100.00 176.20,91.90  C181.00,87.00 187.00,81.00 196.14,75.09  C194.00,86.00 192.00,94.00 190.86,100.34  C188.00,111.00 185.00,119.00 180.69,123.64  C177.00,127.00 175.00,129.00 166.31,128.18  C164.00,134.00 162.00,138.00 160.63,142.38  " /> 
 <path stroke="#000000" fill="#008020" stroke-width="0.00" d=" M193.09,128.94  C197.00,131.00 202.00,134.00 207.64,134.42  C213.00,128.00 216.00,129.00 220.52,127.32  C227.00,128.00 235.00,131.00 244.44,135.86  C250.00,140.00 258.00,144.00 266.84,149.88  C256.00,153.00 248.00,153.00 240.28,152.85  C229.00,154.00 220.00,152.00 214.20,147.64  C211.00,145.00 208.00,143.00 207.72,134.20  C202.00,132.00 197.00,131.00 193.09,128.94  " /> 
 <path stroke="#000000" fill="#008020" stroke-width="0.00" d=" M227.79,121.05  C231.00,119.00 235.00,117.00 240.19,113.54  C238.00,105.00 241.00,103.00 244.38,98.47  C250.00,94.00 258.00,91.00 269.09,88.54  C275.00,88.00 282.00,87.00 290.84,85.94  C285.00,93.00 280.00,97.00 275.55,101.33  C267.00,109.00 261.00,114.00 254.64,116.04  C250.00,117.00 247.00,119.00 239.62,112.64  C235.00,116.00 231.00,119.00 227.79,121.05  " /> 
 <path stroke="#000000" fill="#008020" stroke-width="0.00" d=" M263.71,127.26  C266.00,131.00 269.00,134.00 272.32,136.24  C281.00,133.00 283.00,137.00 287.97,138.76  C293.00,144.00 298.00,150.00 304.12,159.22  C305.00,162.00 307.00,165.00 309.89,168.19  C306.00,168.00 302.00,166.00 299.77,164.67  C289.00,162.00 281.00,157.00 276.32,151.65  C273.00,148.00 269.00,145.00 272.61,135.95  C269.00,133.00 266.00,130.00 263.71,127.26  " /> 
 <path stroke="#000000" fill="#008020" stroke-width="0.00" d=" M299.99,136.33  C302.00,136.00 305.00,136.00 308.47,134.34  C311.00,125.00 317.00,127.00 324.08,125.60  C329.00,126.00 335.00,127.00 342.50,127.44  C336.00,131.00 330.00,134.00 325.99,135.28  C319.00,137.00 315.00,141.00 308.37,133.97  C305.00,135.00 302.00,136.00 299.99,136.33  " /> 
 <path stroke="#000000" fill="#008020" stroke-width="0.00" d=" M338.50,137.82  C340.00,138.00 342.00,140.00 344.36,138.15  C351.00,135.00 356.00,139.00 363.96,141.52  C364.00,142.00 364.00,143.00 365.44,142.09  C364.00,143.00 364.00,143.00 363.86,142.30  C356.00,144.00 349.00,146.00 344.10,139.61  C342.00,138.00 340.00,139.00 338.50,137.82  " /> 
 <path stroke="#000000" fill="#008020" stroke-width="0.00" d=" M376.52,124.31  C377.00,124.00 379.00,123.00 380.16,120.32  C381.00,113.00 388.00,112.00 395.98,108.56  C391.00,115.00 388.00,122.00 381.03,121.37  C378.00,122.00 377.00,124.00 376.52,124.31  " /> 
 <path stroke="#000000" fill="#008020" stroke-width="0.00" d=" M416.35,111.66  C417.00,112.00 418.00,113.00 420.26,112.10  C425.00,109.00 430.00,113.00 435.93,113.65  C430.00,115.00 424.00,118.00 420.26,112.15  C418.00,112.00 417.00,112.00 416.35,111.66  " /> 
 <path stroke="#000000" fill="#008020" stroke-width="0.00" d=" M459.58,115.78  C460.00,116.00 460.00,117.00 461.68,115.83  C464.00,115.00 466.00,117.00 469.08,117.50  C466.00,118.00 463.00,119.00 461.57,116.44  C461.00,116.00 460.00,116.00 459.58,115.78  " /> 
 <path stroke="#000000" fill="#804010" stroke-width="0.00" d=" M-1.33,140.76  C65.00,115.00 88.00,116.00 102.18,124.10  C111.00,131.00 115.00,140.00 126.51,142.60  C153.00,148.00 173.00,135.00 195.16,125.91  C204.00,123.00 215.00,120.00 227.07,119.16  C252.00,121.00 276.00,130.00 298.86,134.67  C308.00,137.00 316.00,139.00 325.02,137.77  C348.00,139.00 372.00,124.00 398.80,115.00  C407.00,113.00 416.00,111.00 426.00,110.49  C460.00,111.00 462.00,117.00 489.32,134.65  C462.00,118.00 460.00,112.00 426.00,111.51  C416.00,112.00 407.00,114.00 399.23,116.35  C373.00,125.00 349.00,141.00 324.98,140.23  C316.00,141.00 307.00,140.00 298.28,137.40  C275.00,133.00 251.00,125.00 226.93,122.84  C216.00,123.00 206.00,126.00 196.66,129.67  C175.00,139.00 155.00,153.00 125.49,147.40  C111.00,144.00 107.00,134.00 99.34,128.56  C88.00,122.00 67.00,120.00 1.33,147.24  " /> 
 <path stroke="#000000" fill="#804010" stroke-width="0.00" d=" M31.66,131.93  C31.00,129.00 30.00,125.00 30.71,120.79  C31.00,125.00 31.00,129.00 32.16,131.88  " /> 
 <path stroke="#000000" fill="#804010" stroke-width="0.00" d=" M65.61,122.52  C69.00,130.00 73.00,137.00 78.42,144.82  C78.00,146.00 78.00,146.00 79.21,146.15  C78.00,146.00 78.00,146.00 78.31,144.90  C72.00,137.00 68.00,130.00 64.43,123.19  " /> 
 <path stroke="#000000" fill="#804010" stroke-width="0.00" d=" M98.10,124.24  C104.00,120.00 110.00,116.00 119.71,110.16  C123.00,108.00 128.00,106.00 133.48,102.92  C128.00,107.00 124.00,109.00 120.51,111.46  C112.00,118.00 105.00,122.00 99.40,126.06  " /> 
 <path stroke="#000000" fill="#804010" stroke-width="0.00" d=" M127.95,144.50  C131.00,152.00 134.00,159.00 138.87,167.71  C141.00,175.00 145.00,182.00 150.33,190.26  C144.00,183.00 140.00,176.00 136.70,168.85  C131.00,161.00 128.00,153.00 125.28,145.70  " /> 
 <path stroke="#000000" fill="#804010" stroke-width="0.00" d=" M159.10,141.74  C161.00,135.00 165.00,128.00 169.91,118.28  C173.00,112.00 177.00,105.00 183.32,96.00  C184.00,95.00 184.00,94.00 185.70,92.38  C185.00,94.00 184.00,95.00 183.74,96.24  C179.00,106.00 175.00,114.00 172.54,119.59  C168.00,129.00 165.00,137.00 162.16,143.03  " /> 
 <path stroke="#000000" fill="#804010" stroke-width="0.00" d=" M193.69,127.37  C200.00,130.00 208.00,133.00 217.81,136.05  C224.00,139.00 232.00,141.00 242.43,144.09  C243.00,145.00 245.00,146.00 247.02,145.48  C245.00,146.00 243.00,145.00 242.29,144.62  C232.00,143.00 223.00,141.00 216.92,138.91  C207.00,137.00 199.00,134.00 192.49,130.51  " /> 
 <path stroke="#000000" fill="#804010" stroke-width="0.00" d=" M226.92,119.76  C233.00,116.00 239.00,111.00 248.84,106.11  C255.00,103.00 262.00,99.00 272.29,94.87  C272.00,95.00 273.00,95.00 273.72,94.23  C273.00,95.00 272.00,95.00 272.35,95.00  C263.00,101.00 256.00,105.00 250.18,108.41  C241.00,114.00 235.00,119.00 228.65,122.33  " /> 
 <path stroke="#000000" fill="#804010" stroke-width="0.00" d=" M264.60,126.39  C270.00,132.00 275.00,138.00 282.78,144.51  C286.00,149.00 291.00,153.00 296.88,157.85  C290.00,154.00 285.00,150.00 281.51,145.91  C273.00,140.00 268.00,134.00 262.81,128.14  " /> 
 <path stroke="#000000" fill="#804010" stroke-width="0.00" d=" M299.78,135.54  C307.00,134.00 314.00,132.00 324.98,130.15  C326.00,130.00 328.00,130.00 331.07,129.31  C328.00,130.00 326.00,131.00 325.09,130.73  C315.00,134.00 307.00,136.00 300.19,137.12  " /> 
 <path stroke="#000000" fill="#804010" stroke-width="0.00" d=" M338.59,137.35  C344.00,139.00 350.00,140.00 358.12,141.14  C350.00,141.00 344.00,140.00 338.42,138.29  " /> 
 <path stroke="#000000" fill="#804010" stroke-width="0.00" d=" M376.23,123.98  C380.00,121.00 385.00,117.00 390.58,112.70  C385.00,118.00 381.00,122.00 376.80,124.64  " /> 
 <path stroke="#000000" fill="#804010" stroke-width="0.00" d=" M416.39,111.33  C420.00,112.00 425.00,113.00 430.50,113.20  C425.00,114.00 420.00,113.00 416.31,111.99  " /> 
 <path stroke="#000000" fill="#804010" stroke-width="0.00" d=" M459.61,115.62  C461.00,116.00 464.00,117.00 466.73,117.05  C464.00,117.00 461.00,117.00 459.56,115.93  " /> 
</svg>